
<!-- Generator: visioncortex VTracer 0.6.4 -->
<svg version="1.1" xmlns="http://www.w3.org/2000/svg" viewBox="0 0 500 500" preserveAspectRatio="xMidYMid meet">
<path d="M0 0 C3.328 0.971 3.328 0.971 5.89 3.971 C13.553 18.245 20.328 38.827 20.328 54.971 C21.034 55.219 21.74 55.466 22.468 55.721 C33.546 60.564 44.51 70.881 49.328 81.971 C49.328 82.961 49.328 83.951 49.328 84.971 C50.811 84.863 50.811 84.863 52.324 84.752 C63.281 84.031 74.225 83.86 85.203 83.846 C86.253 83.842 86.253 83.842 87.324 83.839 C112.448 83.765 112.448 83.765 117.64 87.096 C119.799 90.774 119.693 92.733 119.328 96.971 C118.398 99.7 117.125 102.183 115.765 104.721 C115.218 105.773 115.218 105.773 114.659 106.845 C108.93 117.696 101.941 127.388 94.328 136.971 C93.607 137.888 92.886 138.804 92.144 139.749 C86.847 146.368 81.15 152.554 75.351 158.729 C72.448 161.825 69.639 164.991 66.89 168.225 C64.794 170.567 62.563 172.762 60.328 174.971 C60.992 176.048 61.655 177.124 62.339 178.233 C82.097 210.7 86.413 246.387 82.703 283.596 C82.616 284.475 82.53 285.354 82.441 286.26 C81.099 299.617 79.142 312.366 74.328 324.971 C74.007 325.844 73.686 326.717 73.355 327.617 C72.846 328.956 72.846 328.956 72.328 330.323 C72.018 331.138 71.709 331.954 71.39 332.794 C70.282 335.065 69.307 336.409 67.328 337.971 C64.178 338.365 62.209 338.5 59.453 336.846 C57.777 334.053 57.95 332.184 58.328 328.971 C58.768 328.105 59.209 327.239 59.664 326.346 C67.499 310.455 68.822 292.342 70.328 274.971 C70.514 273.027 70.7 271.083 70.886 269.139 C73.356 241.668 67.304 209.773 52.203 186.471 C51.76 185.77 51.318 185.069 50.863 184.346 C49.141 181.642 47.602 179.246 45.328 176.971 C44.878 173.667 44.878 173.667 45.328 169.971 C47.558 167.276 47.558 167.276 50.515 164.846 C54.293 161.68 57.878 158.495 61.328 154.971 C62.279 154.055 62.279 154.055 63.25 153.12 C70.601 145.988 76.966 138.032 82.941 129.725 C84.328 127.971 84.328 127.971 86.195 126.151 C88.808 123.48 90.972 120.564 93.14 117.534 C93.54 116.993 93.941 116.452 94.353 115.895 C97.262 111.845 99.65 107.608 101.998 103.209 C102.32 102.608 102.641 102.007 102.973 101.388 C103.759 99.916 104.544 98.444 105.328 96.971 C104.154 96.985 104.154 96.985 102.956 96.998 C95.584 97.078 88.213 97.139 80.841 97.178 C77.05 97.199 73.26 97.228 69.47 97.273 C65.814 97.316 62.157 97.34 58.5 97.351 C57.104 97.358 55.708 97.373 54.312 97.394 C52.359 97.423 50.405 97.425 48.451 97.425 C46.783 97.439 46.783 97.439 45.08 97.452 C42.328 96.971 42.328 96.971 40.509 95.077 C39.317 92.953 38.312 90.851 37.39 88.596 C32.83 78.226 25.387 70.9 14.828 66.534 C10.632 64.582 10.632 64.582 9.337 61.988 C9.138 61.207 8.939 60.425 8.734 59.62 C8.5 58.727 8.266 57.835 8.025 56.916 C7.68 55.458 7.68 55.458 7.328 53.971 C7.082 52.956 6.837 51.941 6.583 50.896 C5.809 47.613 5.064 44.325 4.328 41.034 C2.514 32.954 0.582 24.94 -1.672 16.971 C-8.196 22.461 -14.19 28.403 -20.172 34.471 C-25.614 39.991 -31.054 45.399 -36.938 50.446 C-51.353 63.123 -62.934 79.752 -73.249 95.78 C-74.587 97.84 -75.956 99.875 -77.34 101.905 C-104.029 141.387 -118.756 184.104 -117.672 231.971 C-117.654 232.804 -117.637 233.637 -117.618 234.495 C-117.34 245.964 -116.621 257.182 -114.689 268.501 C-112.808 279.53 -112.808 279.53 -114.797 282.846 C-117.553 284.5 -119.523 284.365 -122.672 283.971 C-125.414 282.155 -125.729 280.759 -126.586 277.53 C-126.836 276.158 -127.072 274.784 -127.297 273.409 C-127.419 272.743 -127.54 272.077 -127.665 271.391 C-138.393 210.225 -124.996 147.753 -89.738 96.742 C-88.805 95.414 -87.87 94.088 -86.93 92.764 C-85.126 90.192 -83.438 87.548 -81.735 84.909 C-73.947 73.243 -65.264 62.2 -55.672 51.971 C-54.75 50.949 -53.829 49.926 -52.911 48.901 C-46.781 42.101 -40.384 35.755 -33.583 29.627 C-29.052 25.492 -24.826 21.095 -20.618 16.635 C-19.175 15.134 -17.729 13.636 -16.28 12.14 C-15.288 11.107 -14.303 10.067 -13.325 9.021 C-11.9 7.498 -10.45 6.003 -8.993 4.51 C-7.713 3.168 -7.713 3.168 -6.407 1.798 C-3.672 -0.029 -3.672 -0.029 0 0 Z " fill="#243141" transform="translate(260.67236328125,81.02880859375)"/>
<path d="M0 0 C6.289 7.26 9.092 13.972 9.75 23.562 C9.848 24.843 9.946 26.123 10.047 27.441 C10.001 30.887 9.522 32.95 8 36 C10.931 36.317 10.931 36.317 12.473 34.793 C13.26 33.998 13.26 33.998 14.062 33.188 C19.161 28.637 25.298 26.948 32.062 26.625 C42.833 27.651 50.97 32.677 58.555 40.156 C63.713 46.737 62.732 56.068 62 64 C60.224 72.536 53.771 78.224 47.164 83.453 C40.847 87.37 33.135 86.753 26 86 C18.867 84.178 12.56 79.925 8.527 73.742 C4.399 66.063 1.197 56.306 3.676 47.637 C4.408 45.406 5.179 43.199 6 41 C5.67 40.67 5.34 40.34 5 40 C4.34 41.052 3.68 42.104 3 43.188 C-0.536 48.168 -5.252 51.084 -11 53 C-21.758 53.931 -31.426 51.714 -40 45 C-45.641 39.487 -49.135 32.347 -49.438 24.375 C-49.422 16.625 -45.448 10.608 -40.312 5.188 C-39.821 4.629 -39.329 4.07 -38.822 3.494 C-29.774 -6.252 -10.649 -8.771 0 0 Z M-23 9 C-21.36 9.217 -21.36 9.217 -19.688 9.438 C-13.466 10.387 -13.466 10.387 -11.812 12.562 C-10.638 16.087 -10.308 19.366 -11 23 C-13.585 26.682 -15.209 27.792 -19.562 28.938 C-24.422 29.026 -24.422 29.026 -27 27 C-30.51 22.738 -30.268 19.279 -30 14 C-34.358 17.926 -34.358 17.926 -37 23 C-36.781 27.921 -35.166 32.219 -32 36 C-26.849 39.95 -20.423 41.432 -14 41 C-9.017 38.744 -5.2 35.034 -3 30 C-1.714 23.237 -2.848 16.988 -6.172 10.98 C-9.103 7.805 -12.212 7.422 -16.379 6.891 C-19.142 7.006 -20.663 7.57 -23 9 Z M-30 12 C-29 14 -29 14 -29 14 Z M20.352 43.469 C16.616 47.873 15.636 50.806 15.727 56.418 C16.273 61.581 17.671 67.029 21.754 70.484 C23.824 71.727 23.824 71.727 27 73 C27.66 73.33 28.32 73.66 29 74 C33.594 74.561 37.072 74.464 41.25 72.375 C45.341 68.842 49.685 65.009 50.273 59.391 C50.689 52.53 50.689 52.53 47.938 46.5 C39.944 39.697 29.246 35.544 20.352 43.469 Z " fill="#243141" transform="translate(251,148)"/>
<path d="M0 0 C3.606 3.426 5.161 6.409 5.375 11.312 C5.312 14.869 5.044 15.931 3.062 19.062 C-1.072 21.678 -4.234 22.03 -9 21 C-11.86 19.65 -12.851 18.525 -15 16 C-16.283 12.421 -16.6 10.314 -15 6.809 C-11.1 0.32 -7.62 -1.247 0 0 Z " fill="#243141" transform="translate(287,190)"/>
<path d="" fill="#243141" transform="translate(0,0)"/>
</svg>